<svg width="119" height="22" viewBox="0 0 119 22" fill="none" xmlns="http://www.w3.org/2000/svg">
<path fill-rule="evenodd" clip-rule="evenodd" d="M78.0909 0H91.0909V2H78.0909V0ZM64.4347 16V1.45454H67.0696V7.61221H73.8097V1.45454H76.4517V16H73.8097V9.82103H67.0696V16H64.4347ZM83.9624 16.2131C82.897 16.2131 81.9737 15.9787 81.1925 15.5099C80.4112 15.0412 79.8052 14.3854 79.3743 13.5426C78.9482 12.6998 78.7351 11.715 78.7351 10.5881C78.7351 9.46117 78.9482 8.47395 79.3743 7.62642C79.8052 6.77888 80.4112 6.12074 81.1925 5.65199C81.9737 5.18324 82.897 4.94887 83.9624 4.94887C85.0277 4.94887 85.951 5.18324 86.7322 5.65199C87.5135 6.12074 88.1172 6.77888 88.5433 7.62642C88.9742 8.47395 89.1896 9.46117 89.1896 10.5881C89.1896 11.715 88.9742 12.6998 88.5433 13.5426C88.1172 14.3854 87.5135 15.0412 86.7322 15.5099C85.951 15.9787 85.0277 16.2131 83.9624 16.2131ZM83.9766 14.1534C84.5542 14.1534 85.0372 13.9948 85.4254 13.6776C85.8137 13.3556 86.1025 12.9247 86.2919 12.3849C86.486 11.8452 86.5831 11.2439 86.5831 10.581C86.5831 9.91335 86.486 9.30966 86.2919 8.76988C86.1025 8.22537 85.8137 7.79214 85.4254 7.47017C85.0372 7.14819 84.5542 6.98721 83.9766 6.98721C83.3847 6.98721 82.8923 7.14819 82.4993 7.47017C82.111 7.79214 81.8198 8.22537 81.6257 8.76988C81.4363 9.30966 81.3416 9.91335 81.3416 10.581C81.3416 11.2439 81.4363 11.8452 81.6257 12.3849C81.8198 12.9247 82.111 13.3556 82.4993 13.6776C82.8923 13.9948 83.3847 14.1534 83.9766 14.1534ZM91.3718 16V5.09091H93.8292V6.9446H93.957C94.1843 6.3196 94.5607 5.83191 95.0863 5.48154C95.6119 5.12642 96.2392 4.94887 96.9684 4.94887C97.707 4.94887 98.3297 5.12878 98.8363 5.48863C99.3477 5.84375 99.7075 6.32907 99.9158 6.9446H100.029C100.271 6.33855 100.678 5.85559 101.251 5.49574C101.829 5.13115 102.513 4.94887 103.304 4.94887C104.307 4.94887 105.127 5.2661 105.761 5.90057C106.395 6.53503 106.713 7.46069 106.713 8.67755V16H104.135V9.07529C104.135 8.39819 103.955 7.90341 103.595 7.59091C103.235 7.27367 102.795 7.11505 102.274 7.11505C101.654 7.11505 101.168 7.30919 100.818 7.69745C100.472 8.08096 100.299 8.58049 100.299 9.19603V16H97.7781V8.96875C97.7781 8.4053 97.6076 7.95549 97.2667 7.61932C96.9305 7.28314 96.4902 7.11505 95.9457 7.11505C95.5763 7.11505 95.2402 7.20975 94.9371 7.39915C94.6341 7.5838 94.3926 7.84659 94.2127 8.1875C94.0328 8.52368 93.9428 8.91667 93.9428 9.36647V16H91.3718ZM114.151 16.2131C113.057 16.2131 112.112 15.9858 111.317 15.5312C110.526 15.072 109.918 14.4233 109.491 13.5852C109.065 12.7424 108.852 11.7505 108.852 10.6094C108.852 9.48721 109.065 8.50237 109.491 7.65483C109.922 6.80255 110.524 6.13968 111.295 5.6662C112.067 5.18797 112.974 4.94887 114.016 4.94887C114.688 4.94887 115.322 5.05777 115.919 5.27557C116.52 5.48863 117.051 5.82007 117.51 6.26988C117.974 6.7197 118.339 7.29262 118.604 7.98863C118.869 8.67993 119.001 9.50378 119.001 10.4602V11.2486H111.402C111.41 11.8558 111.526 12.379 111.75 12.8182C111.982 13.268 112.306 13.6136 112.723 13.8551C113.14 14.0919 113.627 14.2102 114.186 14.2102C114.56 14.2102 114.899 14.1581 115.202 14.054C115.505 13.9451 115.768 13.7865 115.99 13.5781C116.213 13.3698 116.381 13.1117 116.494 12.804L118.895 13.0739C118.743 13.7083 118.455 14.2623 118.028 14.7358C117.607 15.2045 117.067 15.5691 116.409 15.8295C115.751 16.0852 114.998 16.2131 114.151 16.2131ZM111.736 8.32954C111.541 8.69286 111.432 9.08823 111.407 9.51562H116.537C116.532 9.02319 116.426 8.58522 116.217 8.20171C116.009 7.81345 115.718 7.50806 115.344 7.28551C114.974 7.06297 114.544 6.95171 114.051 6.95171C113.526 6.95171 113.064 7.07954 112.666 7.33522C112.268 7.58617 111.958 7.91762 111.736 8.32954ZM8.4304 5.19745C8.36411 4.57718 8.08475 4.09422 7.59233 3.74858C7.10464 3.40294 6.47018 3.23012 5.68893 3.23012C5.13968 3.23012 4.66856 3.31297 4.27557 3.4787C3.88258 3.64442 3.58191 3.86932 3.37358 4.15341C3.16525 4.4375 3.05872 4.76184 3.05399 5.12642C3.05399 5.42946 3.12263 5.69225 3.25995 5.91478C3.40199 6.13731 3.59375 6.32671 3.83524 6.48296C4.07671 6.63448 4.34422 6.76231 4.63779 6.86649C4.93135 6.97064 5.22727 7.05824 5.52557 7.12927L6.88921 7.47017C7.43845 7.59802 7.96638 7.77084 8.47301 7.98865C8.98438 8.20645 9.44129 8.48106 9.84375 8.8125C10.2509 9.14395 10.5729 9.54404 10.8097 10.0128C11.0464 10.4815 11.1648 11.0308 11.1648 11.6605C11.1648 12.5128 10.947 13.2633 10.5114 13.9119C10.0758 14.5559 9.44603 15.0601 8.62216 15.4247C7.80303 15.7846 6.81108 15.9645 5.64631 15.9645C4.51468 15.9645 3.5322 15.7893 2.69887 15.4389C1.87027 15.0885 1.22159 14.5772 0.752838 13.9048C0.288834 13.2325 0.0378876 12.4134 0 11.4474H2.59233C2.63022 11.9541 2.78647 12.3755 3.06108 12.7117C3.33571 13.0478 3.69319 13.2988 4.13353 13.4645C4.5786 13.6302 5.07576 13.7131 5.625 13.7131C6.19792 13.7131 6.69981 13.6278 7.13068 13.4574C7.56629 13.2822 7.9072 13.0407 8.15341 12.733C8.39963 12.4205 8.5251 12.0559 8.52983 11.6392C8.5251 11.2604 8.41383 10.9479 8.19602 10.7017C7.97823 10.4508 7.67283 10.2424 7.27983 10.0767C6.89158 9.90625 6.43703 9.75475 5.9162 9.62216L4.26137 9.19603C3.06345 8.88826 2.11649 8.42188 1.42046 7.79688C0.729172 7.16714 0.38353 6.33145 0.38353 5.28978C0.38353 4.43277 0.61554 3.6823 1.07954 3.03836C1.54829 2.39442 2.18513 1.8949 2.99007 1.53978C3.79498 1.17993 4.70644 1 5.72443 1C6.75663 1 7.66099 1.17993 8.4375 1.53978C9.21875 1.8949 9.83192 2.38968 10.277 3.02415C10.7221 3.65388 10.9517 4.37833 10.9659 5.19745H8.4304ZM15.1474 15.7443H12.3349L17.4556 1.19887H20.7085L25.8363 15.7443H23.0238L21.8187 12.1577H16.3503L15.1474 15.7443ZM19.1389 4.18182L21.1076 10.0412H17.0601L19.0252 4.18182H19.1389ZM27.7521 15.7443V1.19887H37.0703V3.40767H30.3871V7.35654H36.4311V9.56535H30.3871V15.7443H27.7521ZM44.8899 10.858H47.2763L48.5164 12.4657C48.8284 12.1367 49.0897 11.7381 49.3004 11.2699C49.6461 10.5076 49.8189 9.57481 49.8189 8.4716C49.8189 7.36838 49.6461 6.43797 49.3004 5.6804C48.9595 4.91809 48.486 4.3428 47.88 3.95454C47.2739 3.56155 46.5755 3.36507 45.7848 3.36507C44.9941 3.36507 44.2957 3.56155 43.6896 3.95454C43.0836 4.3428 42.6077 4.91809 42.2621 5.6804C41.9212 6.43797 41.7507 7.36838 41.7507 8.4716C41.7507 9.57481 41.9212 10.5076 42.2621 11.2699C42.6077 12.0275 43.0836 12.6028 43.6896 12.9957C44.2957 13.384 44.9941 13.5781 45.7848 13.5781C46.1634 13.5781 46.5208 13.5336 46.857 13.4446L44.8899 10.858ZM51.5874 12.4986C51.1916 13.2547 50.6975 13.8905 50.105 14.4061L52.12 16.9943H49.5632L48.3599 15.4695C47.5736 15.7853 46.7152 15.9432 45.7848 15.9432C44.5111 15.9432 43.37 15.6473 42.3615 15.0554C41.3577 14.4588 40.5623 13.6042 39.9751 12.4915C39.3928 11.3741 39.1016 10.0341 39.1016 8.4716C39.1016 6.90436 39.3928 5.56439 39.9751 4.45171C40.5623 3.33429 41.3577 2.47964 42.3615 1.88779C43.37 1.29593 44.5111 1 45.7848 1C47.0585 1 48.1972 1.29593 49.201 1.88779C50.2095 2.47964 51.005 3.33429 51.5874 4.45171C52.1745 5.56439 52.468 6.90436 52.468 8.4716C52.468 10.0388 52.1745 11.3812 51.5874 12.4986ZM41.0909 19.7443H54.0909V21.7443H41.0909V19.7443Z" fill="black"/>
</svg>
